<?xml version="1.0" encoding="utf-8"?>
<!-- Generator: Adobe Illustrator 16.0.0, SVG Export Plug-In . SVG Version: 6.00 Build 0)  -->
<!DOCTYPE svg PUBLIC "-//W3C//DTD SVG 1.1//EN" "http://www.w3.org/Graphics/SVG/1.1/DTD/svg11.dtd">
<svg version="1.1" id="Layer_1" xmlns="http://www.w3.org/2000/svg" xmlns:xlink="http://www.w3.org/1999/xlink" x="0px" y="0px"
	 width="600px" height="200px" viewBox="0 0 600 200" enable-background="new 0 0 600 200" xml:space="preserve">
<g>
	<text transform="matrix(1 0 0 1 205.1152 104.4727)" fill="#FFFFFF" font-family="'NexaLight'" font-size="45.5103">Bluewater Beach </text>
	<path fill="#4A69B2" d="M587,119.411c-5.219-0.747-10.362-1.558-15.66-2.229c-32.661-4.123-66.396-5.386-101.043-4.358
		c-29.967,0.894-58.419,3.655-86.046,7.561c-36.296,5.128-74.067,7.763-113.543,7.089c-24.793-0.423-48.831-2.106-71.609-5.566
		c-0.22-0.036-0.483-0.043-1.003,0.062c0.673,0.181,1.326,0.375,2.058,0.522c19.84,4.08,40.71,7.275,62.741,9.461
		c7.835,0.775,15.815,1.426,23.947,1.938c36.09,2.279,71.506,1.444,106.465-2.424c27.097-2.999,54.396-5.812,81.769-8.512
		c19.703-1.949,40.021-2.826,60.557-2.993c16.46-0.123,32.931-0.155,49.385-0.229c0.558,0,1.1-0.017,1.65-0.025
		C586.777,119.604,586.876,119.508,587,119.411z"/>
</g>
<g>
	<path fill="#FFFFFF" d="M97.776,11.982c-48.613,0-88.173,39.559-88.173,88.183c0,48.612,39.56,88.173,88.173,88.173
		c48.626,0,88.185-39.561,88.185-88.173C185.961,51.541,146.402,11.982,97.776,11.982z M97.776,185.934
		c-47.291,0-85.768-38.478-85.768-85.769c0-47.3,38.478-85.778,85.768-85.778c47.303,0,85.78,38.479,85.78,85.778
		C183.556,147.456,145.079,185.934,97.776,185.934z"/>
	<path fill="#2D50A3" d="M36.722,104.906c-0.42-0.191-0.854-0.372-1.274-0.555c0.035-0.094,0.072-0.189,0.108-0.285
		c0.179,0,0.349-0.026,0.528-0.026c0.192,0,0.397,0,0.589-0.013C36.686,104.329,36.698,104.617,36.722,104.906z"/>
	<path fill="#2D50A3" d="M160.113,101.913c-0.167,0.108-0.252,0.097-0.325,0.062c-0.264-0.119-0.529-0.242-0.793-0.339
		c0.012-0.155,0.012-0.312,0.012-0.479c0.145,0.082,0.301,0.179,0.445,0.263C159.68,101.564,159.897,101.744,160.113,101.913z"/>
	<path fill="#FFFFFF" d="M97.776,19.678c-44.368,0-80.477,36.108-80.477,80.476c0,44.38,36.109,80.477,80.477,80.477
		c44.37,0,80.477-36.097,80.477-80.477C178.253,55.787,142.146,19.678,97.776,19.678z M158.991,101.634
		c-0.782,33.101-27.944,59.759-61.215,59.759c-32.165,0-58.629-24.925-61.059-56.488c-0.023-0.288-0.035-0.576-0.048-0.879
		c-0.095-1.273-0.131-2.571-0.131-3.871c0-33.762,27.475-61.238,61.238-61.238c33.763,0,61.239,27.476,61.239,61.238
		c0,0.338,0,0.674-0.012,0.998C159.003,101.32,159.003,101.477,158.991,101.634z"/>
	<path fill="#4A69B2" d="M100.32,96.588H85.892c3.896-1.19,7.779-2.429,11.651-3.702c6.565-2.166,13.203-3.32,19.888-3.476
		C114.401,94.965,107.234,96.588,100.32,96.588z"/>
	<path fill="#4A69B2" d="M99.563,132.407H74.348v-30.3h25.972c10.173,0,20.886,4.221,20.994,16.016
		C121.314,130.135,109.086,132.407,99.563,132.407z"/>
	<path fill="#4A69B2" d="M159.01,101.158c0,0.167,0,0.322-0.012,0.479c-0.781,33.104-27.943,59.76-61.215,59.76
		c-32.165,0-58.629-24.926-61.059-56.487c-0.024-0.289-0.036-0.577-0.048-0.878c5.086-0.049,10.161-0.086,15.247-0.204
		c5.603-0.134,11.17-0.759,16.593-2.093v36.301h31.046c12.986,0,27.487-4.223,27.487-19.805c0-8.766-5.411-16.447-14.934-19.045
		c5.278-1.659,9.186-5.098,11.074-9.667c2.813,0.181,5.64,0.529,8.477,1.058C141.443,92.417,150.521,96.035,159.01,101.158z"/>
	<path fill="#FFFFFF" d="M99.563,62.283H68.517v39.451c0.938-0.228,1.876-0.479,2.813-0.756c4.871-1.419,9.716-2.874,14.562-4.391
		H74.348V67.261h25.215c9.415,0,19.371,4.654,19.371,15.693c0,2.584-0.542,4.713-1.503,6.456c1.912-0.048,3.836-0.012,5.76,0.108
		c0.817-1.984,1.263-4.197,1.263-6.564C124.453,68.561,112.333,62.283,99.563,62.283z"/>
	<path fill="#FFFFFF" d="M112.117,99.186c5.278-1.659,9.186-5.098,11.074-9.667c-1.924-0.12-3.848-0.156-5.76-0.108
		c-3.03,5.556-10.196,7.178-17.11,7.178H85.892c-4.846,1.517-9.691,2.971-14.562,4.39c-0.937,0.276-1.875,0.529-2.813,0.758v36.301
		h31.046c12.986,0,27.487-4.223,27.487-19.805C127.05,109.466,121.64,101.783,112.117,99.186z M99.563,132.407H74.348v-30.3h25.972
		c10.173,0,20.886,4.221,20.994,16.016C121.314,130.135,109.086,132.407,99.563,132.407z"/>
</g>
</svg>
