<?xml version="1.0" encoding="utf-8"?>
<!-- Generator: Adobe Illustrator 16.0.0, SVG Export Plug-In . SVG Version: 6.00 Build 0)  -->
<!DOCTYPE svg PUBLIC "-//W3C//DTD SVG 1.1//EN" "http://www.w3.org/Graphics/SVG/1.1/DTD/svg11.dtd">
<svg version="1.1" id="Layer_1" xmlns="http://www.w3.org/2000/svg" xmlns:xlink="http://www.w3.org/1999/xlink" x="0px" y="0px"
	 width="600px" height="200px" viewBox="0 0 600 200" enable-background="new 0 0 600 200" xml:space="preserve">
<g>
	<g>
		<text transform="matrix(1 0 0 1 207.1152 103.4727)" fill="#4A4849" font-family="'NexaLight'" font-size="45.5103">Bluewater Beach </text>
		<path fill-rule="evenodd" clip-rule="evenodd" fill="#2D50A3" d="M589,118.411c-5.219-0.747-10.362-1.558-15.66-2.229
			c-32.661-4.124-66.396-5.386-101.043-4.359c-29.967,0.894-58.419,3.655-86.046,7.561c-36.296,5.128-74.067,7.762-113.543,7.088
			c-24.793-0.422-48.831-2.106-71.609-5.566c-0.22-0.036-0.483-0.043-1.003,0.062c0.673,0.18,1.326,0.375,2.058,0.522
			c19.84,4.081,40.71,7.276,62.741,9.461c7.835,0.776,15.815,1.426,23.947,1.938c36.09,2.279,71.505,1.444,106.465-2.424
			c27.096-2.999,54.395-5.812,81.768-8.512c19.703-1.949,40.021-2.826,60.557-2.993c16.46-0.123,32.93-0.155,49.385-0.229
			c0.557,0,1.099-0.017,1.65-0.026C588.777,118.604,588.876,118.508,589,118.411z"/>
	</g>
	<g>
		<path fill="#4A4849" d="M99.776,10.982c-48.613,0-88.173,39.559-88.173,88.183c0,48.613,39.56,88.173,88.173,88.173
			c48.626,0,88.185-39.56,88.185-88.173C187.961,50.541,148.402,10.982,99.776,10.982z M99.776,184.934
			c-47.291,0-85.768-38.478-85.768-85.769c0-47.3,38.478-85.778,85.768-85.778c47.303,0,85.78,38.479,85.78,85.778
			C185.556,146.456,147.079,184.934,99.776,184.934z"/>
		<path fill-rule="evenodd" clip-rule="evenodd" fill="#2D50A3" d="M38.722,103.906c-0.42-0.191-0.854-0.372-1.274-0.554
			c0.035-0.094,0.072-0.19,0.108-0.286c0.179,0,0.349-0.026,0.528-0.026c0.192,0,0.397,0,0.589-0.012
			C38.686,103.329,38.698,103.617,38.722,103.906z"/>
		<path fill-rule="evenodd" clip-rule="evenodd" fill="#2D50A3" d="M162.113,100.913c-0.167,0.108-0.252,0.097-0.325,0.062
			c-0.264-0.12-0.529-0.243-0.793-0.339c0.012-0.155,0.012-0.312,0.012-0.479c0.145,0.082,0.301,0.179,0.445,0.263
			C161.68,100.565,161.897,100.744,162.113,100.913z"/>
		<path fill-rule="evenodd" clip-rule="evenodd" fill="#FDFDFD" d="M172.125,127.222c1.633-2.322,2.293-2.322,3.608,0
			C174.531,127.222,173.328,127.222,172.125,127.222z"/>
		<path fill="#4A4849" d="M99.776,18.678c-44.368,0-80.477,36.108-80.477,80.476c0,44.38,36.109,80.477,80.477,80.477
			c44.37,0,80.477-36.097,80.477-80.477C180.253,54.787,144.146,18.678,99.776,18.678z M160.991,100.634
			c-0.782,33.101-27.944,59.758-61.215,59.758c-32.165,0-58.629-24.924-61.059-56.487c-0.023-0.289-0.035-0.577-0.048-0.879
			c-0.095-1.274-0.131-2.572-0.131-3.871c0-33.762,27.475-61.238,61.238-61.238s61.239,27.476,61.239,61.238
			c0,0.338,0,0.674-0.012,0.998C161.003,100.321,161.003,100.477,160.991,100.634z"/>
		<path fill="#2D50A3" d="M102.32,95.588H87.892c3.896-1.19,7.779-2.429,11.651-3.702c6.565-2.166,13.203-3.32,19.888-3.476
			C116.401,93.965,109.234,95.588,102.32,95.588z"/>
		<path fill="#2D50A3" d="M101.563,131.407H76.348v-30.299h25.972c10.173,0,20.886,4.22,20.994,16.015
			C123.314,129.135,111.086,131.407,101.563,131.407z"/>
		<path fill="#2D50A3" d="M161.01,100.158c0,0.167,0,0.323-0.012,0.479c-0.781,33.103-27.943,59.76-61.215,59.76
			c-32.165,0-58.629-24.926-61.059-56.488c-0.024-0.289-0.036-0.577-0.048-0.878c5.086-0.049,10.161-0.085,15.247-0.204
			c5.603-0.133,11.17-0.758,16.593-2.093v36.301h31.046c12.986,0,27.487-4.222,27.487-19.805c0-8.765-5.411-16.447-14.934-19.045
			c5.278-1.659,9.186-5.098,11.074-9.667c2.813,0.181,5.64,0.529,8.477,1.058C143.443,91.417,152.521,95.035,161.01,100.158z"/>
		<path fill="#4A4849" d="M101.563,61.283H70.517v39.452c0.938-0.228,1.876-0.48,2.813-0.757c4.871-1.419,9.716-2.873,14.562-4.39
			H76.348V66.261h25.215c9.415,0,19.371,4.654,19.371,15.693c0,2.584-0.542,4.713-1.503,6.456c1.912-0.048,3.836-0.012,5.76,0.108
			c0.817-1.984,1.263-4.197,1.263-6.564C126.453,67.561,114.333,61.283,101.563,61.283z"/>
		<path fill="#FFFFFF" d="M114.117,98.186c5.278-1.659,9.186-5.098,11.074-9.667c-1.924-0.12-3.848-0.156-5.76-0.108
			c-3.03,5.556-10.196,7.178-17.11,7.178H87.892c-4.846,1.517-9.691,2.971-14.562,4.39c-0.937,0.276-1.875,0.529-2.813,0.757v36.301
			h31.046c12.986,0,27.487-4.222,27.487-19.805C129.05,108.466,123.64,100.783,114.117,98.186z M101.563,131.407H76.348v-30.299
			h25.972c10.173,0,20.886,4.22,20.994,16.015C123.314,129.135,111.086,131.407,101.563,131.407z"/>
	</g>
</g>
</svg>
