<?xml version="1.0" encoding="utf-8"?>
<!-- Generator: Adobe Illustrator 16.0.0, SVG Export Plug-In . SVG Version: 6.00 Build 0)  -->
<!DOCTYPE svg PUBLIC "-//W3C//DTD SVG 1.1//EN" "http://www.w3.org/Graphics/SVG/1.1/DTD/svg11.dtd">
<svg version="1.1" id="Layer_1" xmlns="http://www.w3.org/2000/svg" xmlns:xlink="http://www.w3.org/1999/xlink" x="0px" y="0px"
	 width="300px" height="300px" viewBox="0 0 300 300" enable-background="new 0 0 300 300" xml:space="preserve">
<path fill="#4A4849" d="M149.99,3.656C69.31,3.656,3.655,69.31,3.655,150.008c0,80.681,65.654,146.335,146.335,146.335
	c80.703,0,146.355-65.654,146.355-146.335C296.346,69.31,230.693,3.656,149.99,3.656z M149.99,292.353
	c-78.485,0-142.344-63.859-142.344-142.345C7.646,71.507,71.505,7.646,149.99,7.646c78.505,0,142.365,63.86,142.365,142.361
	C292.355,228.493,228.495,292.353,149.99,292.353z"/>
<path fill-rule="evenodd" clip-rule="evenodd" fill="#2D50A3" d="M48.663,157.877c-0.698-0.318-1.417-0.618-2.114-0.919
	c0.058-0.156,0.119-0.316,0.18-0.476c0.298,0,0.579-0.044,0.877-0.044c0.319,0,0.659,0,0.978-0.019
	C48.603,156.919,48.624,157.396,48.663,157.877z"/>
<path fill-rule="evenodd" clip-rule="evenodd" fill="#2D50A3" d="M253.448,152.908c-0.279,0.181-0.418,0.162-0.538,0.103
	c-0.439-0.198-0.878-0.403-1.315-0.562c0.019-0.259,0.019-0.52,0.019-0.795c0.24,0.137,0.499,0.297,0.739,0.436
	C252.729,152.332,253.091,152.629,253.448,152.908z"/>
<path fill-rule="evenodd" clip-rule="evenodd" fill="#FDFDFD" d="M270.063,196.571c2.713-3.854,3.806-3.854,5.99,0
	C274.057,196.571,272.06,196.571,270.063,196.571z"/>
<path fill="#4A4849" d="M149.99,16.43c-73.63,0-133.56,59.93-133.56,133.56c0,73.649,59.93,133.56,133.56,133.56
	c73.64,0,133.56-59.91,133.56-133.56C283.55,76.36,223.63,16.43,149.99,16.43z M114.42,245.2c-0.01,0-0.01-0.01-0.01-0.01
	c-2.22-0.82-4.39-1.721-6.53-2.7l-0.01-0.01c-2.85-1.301-5.63-2.73-8.33-4.28c-0.68-0.391-1.35-0.79-2.02-1.2
	c-1.33-0.8-2.64-1.64-3.93-2.5c-1.94-1.3-3.84-2.66-5.68-4.09c-1.84-1.42-3.63-2.9-5.36-4.45c-13.51-12-23.8-27.55-29.42-45.17
	c-0.29-0.91-0.57-1.83-0.84-2.76c-0.27-0.931-0.51-1.86-0.75-2.8c-0.1-0.381-0.2-0.771-0.29-1.16c-0.12-0.5-0.24-1-0.36-1.5
	c-0.35-1.511-0.66-3.03-0.93-4.57c-0.05-0.28-0.1-0.55-0.14-0.83c-0.13-0.76-0.25-1.53-0.37-2.3c-0.35-2.311-0.61-4.65-0.79-7
	c-0.04-0.48-0.06-0.95-0.08-1.46c-0.16-2.11-0.22-4.26-0.22-6.42c0-56.03,45.6-101.63,101.63-101.63
	c56.04,0,101.63,45.6,101.63,101.63c0,0.56,0,1.12-0.01,1.66c0,0.279,0,0.54-0.021,0.8c-1.3,54.93-46.38,99.17-101.6,99.17
	c-9.22,0-18.15-1.23-26.64-3.54C120.31,247.26,117.33,246.29,114.42,245.2z"/>
<path fill="#FFFFFF" d="M185.1,121.44c0,4.29-0.89,7.83-2.489,10.72c-11.091,0.26-22.11,2.17-33.01,5.77
	c-6.42,2.11-12.87,4.17-19.33,6.14h-19.16V95.4h41.85C168.58,95.4,185.1,103.12,185.1,121.44z"/>
<path fill="#FFFFFF" d="M251.62,149.99c0,0.56,0,1.12-0.01,1.66c-14.091-8.5-29.15-14.5-45.37-17.561
	c-4.71-0.87-9.4-1.45-14.07-1.75c1.36-3.3,2.09-6.97,2.09-10.9c0-23.88-20.109-34.3-41.3-34.3h-51.53v65.47
	c-9,2.22-18.24,3.26-27.54,3.479c-8.44,0.19-16.86,0.25-25.3,0.33c0.02,0.5,0.04,0.98,0.08,1.46c0.24,3.14,0.63,6.24,1.15,9.29
	c-0.53-3.06-0.92-6.16-1.16-9.3c-0.04-0.48-0.06-0.95-0.08-1.46c-0.16-2.11-0.22-4.26-0.22-6.42c0-56.03,45.6-101.63,101.63-101.63
	C206.03,48.36,251.62,93.96,251.62,149.99z"/>
<path fill="#2D50A3" d="M182.61,132.16c-5.03,9.22-16.92,11.91-28.4,11.91h-23.94c6.46-1.97,12.91-4.03,19.33-6.14
	C160.5,134.33,171.52,132.42,182.61,132.16z"/>
<path fill="#2D50A3" d="M152.956,203.519h-41.847v-50.286h43.104c16.883,0,34.663,7.004,34.842,26.58
	C189.056,199.747,168.762,203.519,152.956,203.519z"/>
<path fill="#2D50A3" d="M251.62,151.66c0,0.27,0,0.53-0.021,0.79c-1.3,54.939-46.38,99.18-101.6,99.18
	c-12.51,0-24.5-2.27-35.58-6.43c-0.01,0-0.01-0.01-0.01-0.01c-2.22-0.82-4.39-1.721-6.53-2.7l-0.01-0.01
	c-2.85-1.301-5.63-2.73-8.33-4.28c-0.68-0.391-1.35-0.79-2.02-1.2c-1.33-0.8-2.64-1.63-3.93-2.5c-1.94-1.3-3.84-2.66-5.68-4.09
	c-1.84-1.42-3.63-2.9-5.36-4.45c-13.51-12-23.8-27.55-29.42-45.17c-0.58-1.83-1.12-3.68-1.59-5.56c-0.1-0.381-0.2-0.771-0.29-1.16
	c-0.49-2-0.92-4.021-1.29-6.07c-0.05-0.28-0.1-0.55-0.14-0.83c-0.52-3.05-0.91-6.15-1.15-9.29c-0.04-0.479-0.06-0.96-0.08-1.46
	c8.44-0.08,16.86-0.14,25.3-0.33c9.3-0.22,18.54-1.26,27.54-3.479v60.25h51.53c21.55,0,45.62-7.011,45.62-32.87
	c0-14.55-8.98-27.3-24.79-31.61c8.76-2.75,15.25-8.46,18.38-16.04c4.67,0.3,9.36,0.88,14.07,1.75
	c16.22,3.06,31.279,9.06,45.37,17.561C251.61,151.66,251.62,151.66,251.62,151.66z"/>
<path fill="#4A4849" d="M152.96,87.14h-51.53v65.47c1.56-0.37,3.11-0.801,4.67-1.25c8.08-2.36,16.12-4.771,24.17-7.291h-19.16V95.4
	h41.85c15.62,0,32.14,7.72,32.14,26.04c0,4.29-0.89,7.83-2.489,10.72c3.17-0.08,6.37-0.02,9.56,0.18c1.36-3.3,2.09-6.97,2.09-10.9
	C194.26,97.56,174.15,87.14,152.96,87.14z"/>
<path fill="#FFFFFF" d="M173.792,148.382c8.759-2.754,15.245-8.46,18.378-16.045c-3.192-0.199-6.387-0.259-9.56-0.18
	c-5.029,9.22-16.922,11.914-28.396,11.914h-23.947c-8.042,2.517-16.084,4.93-24.168,7.284c-1.555,0.459-3.112,0.88-4.668,1.258
	v60.246h51.525c21.552,0,45.621-7.007,45.621-32.87C198.577,165.443,189.596,152.693,173.792,148.382z M152.956,203.519h-41.847
	v-50.286h43.104c16.883,0,34.663,7.004,34.842,26.58C189.056,199.747,168.762,203.519,152.956,203.519z"/>
</svg>
