<?xml version="1.0" encoding="utf-8"?>
<!-- Generator: Adobe Illustrator 16.0.0, SVG Export Plug-In . SVG Version: 6.00 Build 0)  -->
<!DOCTYPE svg PUBLIC "-//W3C//DTD SVG 1.1//EN" "http://www.w3.org/Graphics/SVG/1.1/DTD/svg11.dtd">
<svg version="1.1" id="Layer_1" xmlns="http://www.w3.org/2000/svg" xmlns:xlink="http://www.w3.org/1999/xlink" x="0px" y="0px"
	 width="600px" height="200px" viewBox="0 0 600 200" enable-background="new 0 0 600 200" xml:space="preserve">
<g>
	<text transform="matrix(1 0 0 1 15.6431 113.502)" fill="#4A4849" font-family="'NexaLight'" font-size="69.0021">Bluewater Beach </text>
	<path fill-rule="evenodd" clip-rule="evenodd" fill="#2D50A3" d="M594.651,136.154c-7.913-1.133-15.711-2.361-23.744-3.381
		c-49.52-6.252-100.669-8.166-153.199-6.609c-45.435,1.355-88.575,5.541-130.462,11.463c-55.031,7.775-112.299,11.77-172.152,10.746
		c-37.59-0.639-74.037-3.193-108.573-8.439c-0.333-0.055-0.733-0.064-1.521,0.094c1.021,0.273,2.011,0.568,3.121,0.793
		c30.081,6.188,61.724,11.031,95.126,14.344c11.879,1.178,23.979,2.162,36.309,2.939c54.719,3.455,108.415,2.189,161.421-3.674
		c41.083-4.549,82.472-8.814,123.974-12.906c29.874-2.955,60.679-4.285,91.815-4.539c24.956-0.186,49.928-0.236,74.879-0.348
		c0.842,0,1.663-0.025,2.501-0.041C594.313,136.447,594.464,136.301,594.651,136.154z"/>
</g>
</svg>
