<?xml version="1.0" encoding="utf-8"?>
<!-- Generator: Adobe Illustrator 16.0.0, SVG Export Plug-In . SVG Version: 6.00 Build 0)  -->
<!DOCTYPE svg PUBLIC "-//W3C//DTD SVG 1.1//EN" "http://www.w3.org/Graphics/SVG/1.1/DTD/svg11.dtd">
<svg version="1.1" id="Layer_1" xmlns="http://www.w3.org/2000/svg" xmlns:xlink="http://www.w3.org/1999/xlink" x="0px" y="0px"
	 width="500px" height="500px" viewBox="0 0 500 500" enable-background="new 0 0 500 500" xml:space="preserve">
<path fill="#FEFEFE" d="M432.294,241.708c0,81.219-0.007,162.438,0.046,243.655c0.001,1.825-0.411,2.237-2.236,2.236
	c-119.435-0.05-238.869-0.05-358.303,0c-1.825,0.001-2.237-0.411-2.236-2.236c0.049-162.437,0.049-324.874,0-487.311
	c0-1.825,0.411-2.237,2.236-2.236c119.434,0.05,238.868,0.05,358.303,0c1.825,0,2.237,0.411,2.236,2.236
	C432.287,79.271,432.294,160.49,432.294,241.708z"/>
<path fill-rule="evenodd" clip-rule="evenodd" fill="#898989" d="M184.535,402.829c-3.887,1.115-4.007,1.118-3.884,5.268
	c0.069,2.341-1.027,3.315-3.139,3.829c0.073-1.102,0.117-2.052,0.209-2.995c0.03-0.305,0.195-0.855,0.29-0.854
	c3.806,0.07,0.92-1.875,0.832-2.89c-0.057-0.654-0.044-1.224,0.113-1.877c0.558-2.332,0.161-5.004,3.521-5.908
	c0.975-0.263,1.938-2.1,1.164-3.805c-0.377-0.832,0.035-1.75,0.356-2.589c1.274-3.329,2.146-6.764,2.41-10.317
	c0.095-1.278,0.636-1.88,1.789-2.211c0.927-0.267,1.814-0.672,2.716-1.025c2.888-1.132,3.203-1.992,1.867-4.881
	c-0.229-0.497-0.581-1.229-0.386-1.586c1.891-3.464-0.648-7.232,0.798-10.739c0.28-0.679,0.479-2.171-0.469-2.36
	c-1.16-0.231-2.57-0.089-3.65,0.753c-1.043,0.814-1.714,1.9-2.265,3.104c-1.91,4.179-3.878,8.333-7.996,10.895
	c-0.386,0.24-0.647,0.578-0.583,0.981c0.377,2.341-1.345,3.493-2.703,4.837c-1.048,1.036-1.81,2.173-2.374,3.585
	c-1.162,2.911-2.531,5.766-4.832,8.011c-1.58,1.542-1.536,3.681-2.074,5.587c-0.379,1.345-0.696,2.243-2.403,2.466
	c-1.743,0.226-2.56,2.104-3.835,3.198c-0.682,0.586-1.219,1.21-2.323,0.808c-0.966-0.354-2.019-1.817-2.991-0.634
	c-1.097,1.335-2.087,2.948-1.787,4.875c0.186,1.192,0.508,2.362,0.765,3.544c0.322,1.482,0.204,2.837-0.78,4.12
	c-1.229,1.603-2.397,3.271-2.023,5.506c0.06,0.353-0.1,1.028-0.307,1.096c-2.445,0.794-4.013,3.994-7.226,2.671
	c-2.5-1.03-3.39,0.495-4.21,2.473c-0.578,1.394-0.066,2.884-0.626,4.268c-2.812-2.561-3.066-4.655-0.993-7.72
	c0.17-0.252,0.448-0.599,0.384-0.815c-1.382-4.734,2.72-7.693,3.749-11.64c0.144-0.55,0.698-0.584,1.177-0.706
	c0.464-0.118,1.111-0.209,1.32-0.538c3.068-4.843,8.367-8.572,7.717-15.284c-0.021-0.219-0.145-0.428-0.238-0.688
	c-5.082,1.733-8.258,5.537-10.931,9.825c-1.193,1.915-2.081,4.023-3.069,6.062c-0.465,0.958-1.195,1.383-2.157,0.987
	c-0.947-0.389-1.313-1.375-0.971-2.228c0.615-1.529,0.929-3.344,2.699-4.127c1.07-0.474,1.426-0.9,0.71-2.153
	c-1.018-1.782-0.166-2.913,1.98-3.039c2.187-0.127,2.773-1.113,1.486-2.896c-0.759-1.052-0.351-1.568,0.332-2.239
	c1.042-1.023,2.183-1.976,3.066-3.123c1.094-1.426,2.498-2.919,0.681-4.853c-0.776-0.825-0.041-1.732,0.215-2.514
	c1.329-4.055,3.26-7.909,4.048-12.146c0.265-1.424,0.728-2.88,0.63-4.288c-0.182-2.62,1.878-3.993,2.885-5.94
	c0.17-0.328,0.63-0.824,0.95-0.559c2.15,1.788,2.548-0.622,3.294-1.502c1.714-2.024,3.221-4.219,3.851-6.91
	c0.361-1.542,1.715-2.552,2.692-3.686c1.224-1.419,1.816-2.913,2.235-4.698c1.716-7.326,4.261-14.379,7.386-21.224
	c0.297-0.649,0.637-1.388,0.596-2.062c-0.123-2.03,0.229-3.644,2.426-4.411c0.681-0.237,0.949-1.026,1.143-1.774
	c0.178-0.69,0.382-1.522,0.872-1.958c1.846-1.641,3.097-3.471,2.868-6.212c0.644,0.771,1.362,1.493,1.911,2.326
	c0.502,0.763,1.003,1.352,1.94,0.829c1.067-0.596,0.768-1.436,0.27-2.272c-1.182-1.987-1.452-4.149-1.762-6.434
	c-0.43-3.164,1.951-4.993,2.631-7.56c0.475-1.793,0.989-3.574,1.457-5.369c0.498-1.909,1.78-3.088,3.142-4.498
	c2.265-2.346,3.539-5.577,3.566-9.019c0.012-1.494,0.413-1.985,1.958-1.628c1.877,0.434,2.758-0.474,2.453-2.391
	c-0.416-2.611,0.421-4.454,2.944-5.577c5.501-2.447,8.011-7.801,11.491-12.178c2.507-3.155,4.544-6.684,7.602-9.398
	c0.353-0.314,0.746-0.728,0.845-1.159c0.74-3.221,3.295-4.106,6.023-4.755c1.899-0.451,3.478-1.234,4.156-3.248
	c0.502-1.489,2.321-1.382,3.155-2.498c-0.062-0.14-0.099-0.375-0.189-0.398c-3.859-0.959-3.78-0.943-3.044-5.059
	c0.249-1.39,0.951-2.786,0.401-4.482c-2.223,1.305-3.598,3.163-4.656,5.364c-0.561,1.167-1.523,3.38-2.252,2.886
	c-1.387-0.94,0.364-2.386,0.92-3.438c1.846-3.486,3.448-6.963,2.786-11.052c1.174-1.525,2.791-2.129,4.646-2.16
	c1.694-0.027,2.79-0.8,3.138-2.458c1.078-5.137,4.036-9.391,6.473-13.889c0.206-0.379,0.471-0.829,0.077-1.084
	c-2.718-1.766-1.323-4.089-0.671-6.094c1.311-4.034,3.824-5.384,7.813-4.592c3.485,0.692,4.703,3.234,2.865,6.251
	c-0.727,1.194-1.142,2.289-0.62,3.638c0.344,0.89,0.037,1.749-0.194,2.613c-0.29,1.081-0.747,2.152-0.216,3.382
	c0.116-1.136,0.298-2.224,1.312-2.908c1.232-0.831,2.267-0.161,3.408,0.291c1.127,0.446,2.385-0.094,3.59,0.217
	c0.774,0.2,1.666,0.099,2.323,0.604c3.168,2.441,5.824,5.374,7.664,8.923c0.8,1.544-0.657,3.557-2.917,4.537
	c-1.608-0.222-2.803-0.826-3.466-2.535c-0.578-1.489-2.005-2.507-3.168-3.554c-1.26-1.136-2.738-0.119-3.191,1.022
	c-1.459,3.67-4.176,3.085-7.002,2.442c-0.863-0.196-1.731-0.383-2.56-0.714c-0.84-0.335-1.726-0.666-2.454,0.168
	c-0.659,0.753-0.564,1.645-0.22,2.513c0.442,1.117,0.91,2.226-0.902,2.53c-1.59-1.447-2.404,0.309-3.524,0.803
	c1.089-0.495,1.849-2.192,3.433-0.891c0.705,1.129-0.111,1.818-0.763,2.523c-1.266,1.37-2.631,2.643-3.921,3.989
	c-3.027,3.157-2.768,6.699,0.666,9.333c2.503,1.919,2.471,3.611-0.149,5.53c-0.88,0.645-1.55,1.404-1.9,2.449
	c-0.84,2.509-2.38,4.615-4.136,6.512c-1.151,1.242-1.526,2.512-0.929,3.974c0.755,1.85,0.318,3.269-1.077,4.584
	c-1.034,0.974-1.542,2.263-1.803,3.649c-0.075,0.399-0.322,0.929-0.119,1.184c1.792,2.248,2.428,5.36,5.102,6.929
	c0.478,0.28,1.091,0.377,1.448,0.836c0.876,1.127,1.679,0.81,2.328-0.157c0.843-1.258,2.106-1.666,3.451-2.064
	c2.015-0.598,4.087-1.119,5.671-2.648c0.647-0.625,1.352-1.283,1.083-2.292c-0.256-0.956-1.094-1.051-1.949-1.095
	c-1.658-0.084-2.129-1.212-2.253-2.642c-0.125-1.422,0.637-2.077,1.918-2.334c1.44-0.288,2.768-0.919,4.132-1.428
	c0.978-0.365,1.872-0.527,2.716,0.253c-0.289,3.023,1.771,6.18-0.626,9.125c-0.823,1.011-0.416,1.754,1.044,1.848
	c2.566,0.165,2.779,0.605,2.596,3.148c-0.158,2.191-0.844,4.102-2.202,5.791c1.783-2.72,3.63-5.402,3.173-8.944
	c-0.157-1.217,0.564-1.99,1.69-2.352c0.849-0.272,1.709-0.513,2.575-0.728c1.775-0.44,2.845-1.488,2.928-3.387
	c0.057-1.304,0.744-2.103,1.72-2.997c1.766-1.619,3.339-3.504,2.868-6.282c-0.232-1.369,0.272-2.729,0.43-4.095
	c0.104-0.901,0.738-1.356,1.559-1.68c1.888-0.744,4.246-5.514,3.751-7.484c-0.266-1.061-1.167-1.492-1.972-2.036
	c-1.341-0.905-1.533-1.768-0.332-3.141c3.624-4.145,5.701-8.952,5.518-14.572c-0.062-1.87,1.137-2.901,2.645-3.35
	c2.298-0.684,3.477-2.201,4.141-4.353c1.019-3.302,3.034-6.327,2.757-9.99c-0.019-0.239,0.034-0.553,0.204-0.686
	c2.586-2.019,1.857-5.152,2.696-7.754c-0.541,1.433-0.978,2.903-1.592,4.306c-0.515,1.174-1.267,2.158-2.716,2.033
	c-1.41-0.121-2.65-0.545-3.326-2.03c-1.849-4.06-0.051-9.417,3.912-11.396c0.993-0.496,2.061-0.337,3.105-0.173
	c1.336,0.208,2.592-0.072,3.04-1.405c1.121-3.337,3.391-6.065,4.718-9.281c0.535-1.297,0.781-2.602,0.61-4.031
	c-0.27-2.245,0.106-2.646,2.434-2.851c1.434-0.126,2.475-0.31,0.893-1.876c-0.578-0.573-0.865-1.366-1.018-2.178
	c-0.347-1.851,0.633-2.747,2.491-2.371c1.461,0.295,2.837,1.758,4.358,0.804c1.334-0.837,1.517-2.627,2.36-3.901
	c2.488-3.754,3.427-8.281,6.232-11.926c1.757-2.282,1.652-5.377,2.007-8.182c0.425-3.368,2.866-5.853,6.241-5.694
	c1.732,0.082,1.526-0.581,1.219-1.651c-0.246-0.858-0.466-1.724-0.715-2.578c-0.808-2.77-0.038-5.09,1.836-7.174
	c2.216-2.463,2.537-3.674,0.755-6.223c-1.973-2.819-1.51-5.659-0.911-8.627c0.2-0.992,0.766-1.505,1.774-1.721
	c1.877-0.401,2.539-1.441,1.832-3.253c-0.854-2.185-1.964-4.271-3.216-6.267c-0.128-0.206-0.279-0.475-0.488-0.529
	c-2.641-0.69-3.852-2.953-5.61-4.723c-4.017-4.041-8.047-7.979-10.349-13.327c-0.668-1.553-1.638-2.986-1.363-4.823
	c0.11-0.745-0.328-1.404-0.772-1.999c-0.906-1.213-0.889-2.38,0.145-3.517c0.447-0.491,0.891-1.013,0.376-1.705
	c-0.205-0.276-0.551-0.348-0.88-0.278c-0.748,0.16-1.119,0.718-1.114,1.409c0.015,2.235-1.377,3.152-3.276,3.578
	c-1.781,0.399-3.036,1.43-3.961,2.969c-1.004,1.667-2.057,3.305-3.097,4.95c-0.584,0.924-0.633,1.574,0.484,2.395
	c2.245,1.65,2.421,4.656,0.649,6.785c-0.418,0.503-0.925,0.971-0.966,1.649c-0.239,4.005-2.383,7.372-3.683,11.018
	c-1.023,2.871-3.159,4.914-5.692,6.439c-2.765,1.665-5.484,3.481-8.762,4.108c-1.084,0.208-1.798,1.015-2.411,1.921
	c-1.045,1.544-2.128,3.065-3.545,4.308c-0.689,0.604-1.377,1.189-2.373,0.636c0.131-1.951,1.654-3.098,2.729-4.447
	c0.794-0.995,1.19-1.771,0.7-3.034c-0.269-0.691-0.59-1.635-0.035-2.34c1.862-2.367,0.714-4.691,0.074-7.071
	c-0.459-1.707-0.981-3.457-1.028-5.199c-0.083-3.09,2.088-5.854,1.544-9.071c-0.018-0.107,0.147-0.328,0.267-0.364
	c3.834-1.151,2.33-4.249,2.519-6.758c0.073-0.978-0.633-2.504,1.265-2.58c1.593-0.064,1.934,0.712,1.758,2.29
	c-0.157,1.418,1.802,2.015,3.086,0.954c2.375-1.961,3.783-4.558,3.546-7.616c-0.354-4.554,0.259-8.919,3.358-12.251
	c2.812-3.021,3.76-7.31,7.206-9.793c0.446-0.321,0.931-0.788,1.085-1.284c1.037-3.34,3.693-5.229,6.363-7.019
	c2.94-1.97,4.855-4.435,4.994-8.081c0.012-0.292,0.247-0.576,0.454-1.027c1.064,0.42,1.332,2.234,2.952,1.607
	c-0.104-1.318-0.957-2.339-1.491-3.473c-0.432-0.916-0.383-1.419,0.716-1.762c0.992-0.31,1.891-0.911,2.844-1.357
	c1.453-0.681,2.815-1.314,1.868-3.402c-0.393-0.865-0.006-1.579,1.192-1.424c0.558,0.072,1.141,0.057,1.7-0.016
	c1.506-0.196,3.025-1.883,4.267-1.05c0.949,0.637,0.865,2.66,1.537,3.907c0.938,1.74,2.204,3.252,2.78,5.247
	c0.404,1.399,1.811,1.294,3.104,0.879c2.639-0.846,4.973-2.789,8.02-2.239c0.306,0.056,0.833-0.264,1.024-0.56
	c1.734-2.671,2.891-0.922,4.05,0.518c0.865,1.074,1.779,2.277,1.787,3.639c0.018,3.249,1.439,5.854,3.123,8.475
	c2.783,4.328,3.376,9.167,3.421,14.255c0.046,5.357,1.519,10.569,3.948,15.324c2.716,5.314,4.47,10.705,3.75,16.725
	c-0.224,1.871,0.813,3.65,0.413,5.535c-0.783-1.253-1.307,0.433-2.003,0.18c-2.561-5.704-7.795-9.111-11.722-13.641
	c-1.374-1.584-1.314-2.485,0.182-3.966c0.634-0.627,1.418-1.079,2.019-1.75c1.946-2.177,2.169-3.962,0.453-6.297
	c-1.919-2.612-2.064-5.962-3.809-8.631c-0.256-0.392-0.131-0.982,0.136-1.405c1.357-2.157,0.339-4.057-0.248-6.212
	c-0.634-2.327-1.679-2.027-3.543-2.093c-3.109-0.109-5.979,1.6-9.104,0.87c-0.526-0.123-1.115,0.25-1.542,0.63
	c-1.256,1.116-2.578,1.188-4.037,0.429c-0.641-0.333-1.379-0.698-2.009-0.007c-0.539,0.592-0.466,1.351-0.324,2.083
	c0.127,0.654,0.412,1.25,0.9,1.693c2.165,1.959,3.43,4.723,5.874,6.445c1.933,1.361,2.042,3.433,1.663,5.489
	c-0.624,3.387-0.071,6.388,2.159,9.114c1.301,1.59-0.254,5.378-2.603,6.739c-3.03,1.755-3.874,7.766-1.391,10.138
	c1.083,1.034,2.462,1.126,3.878,0.965c3.63-0.413,5.113,1.584,3.567,4.957c-0.665,1.451-0.88,2.936-0.102,4.2
	c1.354,2.202,1.977,4.812,4.213,6.554c2.399,1.869,2.657,4.267,1.3,7.083c-0.32,0.664-0.587,1.344-0.655,2.077
	c-0.121,1.306-0.594,2.27-1.937,2.799c-1.575,0.621-1.809,1.94-1.361,3.438c0.298,0.996,0.885,1.927,0.539,3.048
	c-0.155,0.504-0.088,1.025,0.544,1.138c0.753,0.133,1.27-0.271,1.453-0.979c0.227-0.874-0.149-1.768,0.018-2.661
	c0.413-2.21,1.712-2.846,3.593-1.608c1.92,1.263,3.606,0.703,5.092-0.607c1.593-1.404,3.027-2.911,5.405-2.854
	c0.829,0.02,1.538-0.6,1.925-1.341c1.169-2.243,3.147-3.104,5.677-3.492c-1.892-1.134-3.672-2.303-4.771-4.215
	c-0.321-0.558-0.82-1.026-0.905-1.697c-0.295-2.302-1.354-3.968-3.367-5.313c-2.063-1.378-2.076-3.993-1.636-6.004
	c0.384-1.749,1.128-4.013,3.676-4.297c0.577,0.154,1.169,0.537,1.211,1.048c0.219,2.586,2.492,4.405,2.539,7.012
	c-0.124-0.598,0.008-1.087,0.641-1.346c1.664,3.568,3.378,7.003,6.341,9.85c2.171,2.087,2.316,5.32,1.734,8.26
	c-0.661,3.339-4.667,5.87-8.193,5.142c-1.232-0.255-1.983,0.107-2.876,0.66c-2.812,1.743-5.631,3.474-8.466,5.179
	c-0.475,0.285-1.044,0.595-1.566,0.589c-4.494-0.045-7.668,2.646-10.874,5.218c-1.432,1.148-3.036,2.131-3.958,3.857
	c-0.576,1.081-1.824,1.58-2.88,1.562c-2.039-0.034-2.719,1.167-3.475,2.708c-3.179,6.479-6.759,12.692-12.381,17.447
	c-2.279,1.928-4.658,3.752-6.334,6.294c-0.212,0.322-0.579,0.697-0.923,0.753c-5.551,0.918-6.979,6.062-9.771,9.706
	c-1.646,2.149-2.356,4.875-2.816,7.652c-0.441,2.665-1.067,5.334-2.697,7.675c-1.216,1.748-1.715,3.823-1.511,6.005
	c0.139,1.495-0.198,2.864-0.943,4.185c-1.233,2.188-2.053,4.521-2.637,6.989c-0.469,1.981-1.113,3.876-2.674,5.548
	c-3.025,3.239-5.54,6.952-6.604,11.363c-0.487,2.02-0.87,4.174-0.71,6.222c0.56,7.148-1.94,13.448-4.747,19.781
	c-2.359,5.326-5.743,9.846-9.537,14.179c-3.795,4.334-5.497,9.84-7.598,15.045c-2.078,5.147-4.245,10.292-5.667,15.694
	c-0.242,0.919-0.7,1.852-1.286,2.6c-3.573,4.56-5.207,9.973-6.927,15.359c-1.871,5.854-5.15,11.113-7.196,16.892
	c-1.32,3.729-3.67,6.929-5.366,10.376c-2.278,4.634-4.908,9.271-6.211,14.352c-0.788,3.07-2.157,5.445-4.961,7.022
	c-5.384,3.03-8.668,7.423-9.357,13.785c-0.34,3.148-3.021,5.264-4.848,7.68c-4.183,5.529-8.584,10.892-12.485,16.633
	c-1.042,1.532-2.086,2.778-4.222,3.225c-1.875,0.391-3.464,1.967-4.587,3.721L184.535,402.829z"/>
<path fill-rule="evenodd" clip-rule="evenodd" fill="#3B3B3B" d="M271.228,109.81c2.156-1.763,3.999-3.819,5.223-6.316
	c0.647-1.323,1.756-1.599,2.918-1.861c4.213-0.952,7.863-3.026,10.928-5.955c3.604-3.445,4.68-8.329,5.844-12.862
	c0.446-1.735,0.344-3.134,1.991-4.327c1.419-1.028,0.436-4.265-1.388-4.668c-1.846-0.409-2.149-1-1.05-2.581
	c1.337-1.923,2.515-3.963,3.678-6c1.177-2.058,2.615-3.593,5.172-3.88c1.567-0.176,2.486-1.069,1.874-2.899
	c-0.324-0.968-0.338-1.951,1.076-2.206c1.756-0.317,3.482-0.845,4.604,1.291c0.754,1.437-0.25,1.903-1.123,2.458
	c-1.326,0.841-1.575,1.699-0.343,2.872c0.896,0.852,1.667,1.812,0.789,3.191c-0.167,0.261-0.077,0.817,0.087,1.138
	c1.658,3.229,2.786,6.794,5.55,9.343c2.284,2.108,3.794,4.913,6.84,6.432c1.185,0.591,1.226,2.991,3.652,3.451
	c2.234,0.424,5.442,9.049,4.795,11.374c-0.824,2.958-0.824,2.958-3.513,1.306c-0.456,3.118-1.421,5.949,0.892,8.98
	c2.229,2.923,1.742,4.319-0.916,7.072c-1.836,1.901-2.549,3.985-1.734,6.641c0.652,2.129,1.567,4.238,1.525,6.898
	c-2.195-1.166-4.197-2.135-6.412-0.438c-1.045,0.801-1.806,1.529-1.854,2.893c-0.178,5.067-1.442,9.744-4.961,13.602
	c-0.265,0.291-0.59,0.707-0.572,1.048c0.247,4.66-4.663,7.176-4.82,11.685c-0.035,1.02-0.933,0.618-1.517,0.396
	c-1.87-0.708-3.729-1.444-5.997-2.327c0.346,1.637,0.404,2.826,1.855,3.493c0.68,0.312,2.229,0.118,1.79,1.407
	c-0.369,1.083-1.476,2.467-2.632,2.213c-3.265-0.717-2.999,0.786-2.798,3.185c0.157,1.877-0.824,3.913-1.984,5.381
	c-1.663,2.105-2.635,4.479-3.433,6.9c-0.721,2.189-2.174,2.685-3.905,2.097c-3.954-1.342-4.754,2.19-6.515,4.055
	c-1.787,1.894-0.143,3.967,0.355,5.902c0.249,0.967,1.328,1.167,2.21,1.207c0.994,0.044,1.324-0.847,1.6-1.598
	c0.878-2.389,1.611-4.839,3.064-7.278c1.054,1.697,0.425,3.24,0.439,4.688c0.017,1.604-0.285,3.213-0.452,4.819
	c-0.025,0.241,0.005,0.634-0.12,0.697c-2.738,1.376-1.66,4.302-2.6,6.405c-1.022,2.286-1.848,4.665-2.663,7.037
	c-0.671,1.952-1.61,3.382-3.907,3.746c-1.732,0.274-2.787,1.098-2.144,3.411c0.586,2.104-0.779,4.245-1.384,6.278
	c-0.988,3.324-2.638,6.466-5.311,8.873c4.028,2.918,4.034,2.92,2.26,8.043c-0.424,1.223-0.872,2.439-1.372,3.632
	c-0.195,0.467-0.23,1.144-1.085,1.069c-0.667-0.059-1.815-1.232-1.923,0.119c-0.118,1.491-1.361,3.22,0.135,4.57
	c0.842,0.761,0.933,1.323,0.095,1.913c-1.335,0.94-1.958,2.333-2.646,3.705c-0.292,0.583-0.571,1.332-1.23,1.421
	c-1.356,0.183-1.476,1.052-1.385,2.081c0.217,2.436-1.188,3.537-3.293,4.071c-1.02,0.26-2.054,0.459-3.068,0.734
	c-0.456,0.124-1.126,0.408-0.862,0.934c1.23,2.454-0.45,4.37-1.193,6.384c-0.694,1.878-1.866,3.582-2.86,5.345
	c-0.339,0.599-0.647,1.505-1.605,0.778c-0.712-0.541-1.486-1.198-0.932-2.229c0.457-0.848,1.006-1.688,1.678-2.369
	c1.584-1.607,1.493-3.729,1.732-5.677c0.176-1.425-1.026-0.773-1.726-0.592c-0.886,0.229-1.945,1.26-2.61,0.16
	c-0.723-1.194-0.711-2.759,0.44-3.811c1.391-1.271,1.876-2.503,0.809-4.225c-0.955-1.542,0.511-2.718,0.819-4.073
	c-0.272-0.459-0.465-0.937-0.359-1.488c1.343-2.596,3.146-4.887,5.278-6.84c1.593-1.459,2.68-2.993,2.685-5.19
	c0.001-0.485-0.075-1.101,0.217-1.421c2.209-2.424,1.436-5.263,1.238-8.04c-0.204-2.858,0.764-5.477,2.132-7.866
	c0.743-1.297,1.066-2.5,0.927-3.913c0.264-0.947,0.054-1.896,0.013-2.846c-0.051-1.147,0.281-2.051,1.578-2.273
	c2.685-3.075,2.671-3.611-0.051-6.59c-1.034-1.132-2.021-2.307-3.018-3.471c-1.943-2.268-3.354-2.588-6.252-1.382
	c-1.194,0.497-1.472-0.684-2.076-1.177c-0.705-0.576-1.322-0.945-2.133-0.305c-0.803,0.634-0.318,1.301-0.009,1.948
	c0.323,0.678,1.316,1.266,0.577,2.11c-0.677,0.775-1.62,0.599-2.459,0.132c-0.919-0.511-1.957-0.992-1.733-2.32
	c0.161-0.953,0.482-1.877,0.682-2.826c0.641-3.051-0.624-6.461,1.862-9.19c0.616-0.677-0.174-1.294-0.767-1.758
	c-2.451-1.915-6.009-1.204-7.626,1.424c-0.656,1.066-0.96,2.212-1.303,3.367c-0.403,1.358-0.575,2.529,1.465,2.656
	c0.694,0.043,1.701,0.269,1.704,1.386c0.002,0.903-0.67,1.198-1.395,1.445c-1.456,0.496-2.195,1.536-2.385,3.058
	c-0.079,0.626-0.186,1.423-0.594,1.805c-2.935,2.741-3.301,6.553-4.327,10.083c-0.387,1.331-1.027,2.241-2.531,1.984
	c-2.186-0.374-4.062,0.993-6.169,1.001l0,0c-0.417-1.514-0.547-3.081-0.761-4.625c-0.295-2.13-0.695-3.887-3.022-4.96
	c-1.935-0.892-2.977-5.938-2.363-8.014c1.306-4.422,4.098-7.842,7.121-11.138c0.951-1.319,1.608-2.853,2.876-3.94
	c2.567-1.407,5.178-1.203,7.601,0.178c1.519,0.867,3.153,0.242,4.629,0.842c0.636,0.24,1.264,0.126,1.89-0.046
	c1.825-0.168,3.572-0.84,5.384-0.966c1.657-0.115,2.555-0.864,2.936-2.396c1.786-1.973,3.434-4.106,4.409-6.553
	c0.739-1.855,3.179-2.051,3.461-4.127c0.321-3.156-0.656-5.938-2.062-8.747c-2.56-5.114-3.143-10.627-2.384-16.271
	c0.197-1.472,0.317-2.892-0.452-4.233c-0.806-1.407,0.056-2.638,0.389-3.925c0.502-2.257,1.003-4.514,1.505-6.771
	c0.822-1.52,2.401-2.119,3.747-2.95c2.308-1.426,4.311-3.04,5.018-5.814v0c2.142-1.728,2.1-4.211,2.239-6.608
	c0.051-0.877-0.285-1.745-0.299-2.635C271.148,110.109,271.178,109.958,271.228,109.81z"/>
<path fill-rule="evenodd" clip-rule="evenodd" fill="#898989" d="M135.811,467.115c-1.516-0.811-0.432-1.721-0.138-2.644
	c0.53-1.665,2.741-2.926,2.026-4.671c-0.634-1.549-2.718-2.146-4.194-3.113c-2.949-1.934-5.074-4.746-7.65-7.073
	c-0.985-0.89-0.161-1.812-0.281-2.703c-0.461-3.414,0.54-6.21,3.395-8.259c1.077-0.772,1.057-1.932,1.01-3.077
	c-0.04-0.96,0.184-1.822,1.1-2.25c0.934-0.436,1.415,0.564,2.11,0.876c0.881,0.395,0.888,1.13,0.592,2.043
	c-0.891,2.742,1.618,4.308,2.398,6.48c0.108,0.301,0.74,0.403,0.808,0.157c0.698-2.518,2.742-1.452,4.232-1.535
	c3.032-0.169,4.709-1.902,4.505-5.067c-0.057-0.886,0.074-1.127,1.042-0.953c5.187,0.931,8.653-1.286,10.658-6.024
	c0.37-0.873,1.032-1.35,1.906-1.077c1.79,0.559,1.824-0.486,1.81-1.742c-0.038-3.167,0.641-5.874,4.255-6.805
	c0.871-0.224,1.528-0.818,1.624-1.892c0.134-1.495,1.492-1.286,2.436-1.491c1.192-0.259,0.855,0.901,1.067,1.461
	c0.426,1.124,0.925,2.053,2.315,2.097c1.587,0.05,1.805-1.062,1.945-2.238c0.077-0.647,0.326-1.162,1.055-0.985
	c0.872,0.211,1.872,0.693,2.461-0.199c1.05-1.591,2.584-2.948,2.77-5.016c0.051-0.563,0.076-1.14,0.016-1.7
	c-0.217-2.014,0.229-3.362,2.687-3.001c0.903,0.132,1.69-0.354,1.917-1.172c0.225-0.808-0.696-0.935-1.232-1.214
	c-1.109-0.577,0.077-1,0.08-1.498l-0.039,0.034c1.018-0.031,1.508-0.872,2.179-1.43c0.401-0.334,0.851-0.594,1.314-0.289
	c0.462,0.303,0.412,0.866,0.288,1.333c-1.967,7.432-4.993,14.232-10.917,19.497c-5.215,4.634-9.788,9.872-13.663,15.696
	c-1.624,2.439-1.379,5.323-1.493,7.979c-0.228,5.278-2.786,9.427-5.879,13.238c-2.594,3.194-5.621,6.097-8.755,8.777
	c-3.042,2.603-6.478,4.728-9.611,7.261c-3.267,2.642-7.282,2.289-11.155,1.548c-4.98-0.953-9.583-0.332-13.689,2.83
	c-0.719,0.554-1.511,1.017-2.443,0.92c-3.345-0.349-6.359,0.836-9.418,1.89c-0.689,0.237-1.482,0.819-2.244,0.001
	c-2.956-3.178-6.229-6.004-10.194-8.541c2.442-1.165,4.605-1.354,6.674-1.874c0.312-0.078,0.723-0.045,0.927-0.235
	c2.412-2.258,4.841-4.5,7.138-6.872c0.419-0.433,0.092-1.384-0.184-2.099c-0.235-0.61,0.018-1.068,0.755-1.224
	c0.815-0.172,0.885,0.262,1.035,0.901c0.663,2.83,3.617,3.848,5.983,2.114c0.455-0.333,0.993-0.575,1.383-0.969
	c0.92-0.929,1.375-0.689,1.859,0.449c0.889,2.089,1.354,2.102,2.753,0.254c0.096-0.127,0.13-0.304,0.232-0.425
	c0.658-0.773,1.282-2.195,2.283-1.789c1.153,0.468,0.382,1.797,0.216,2.807c-0.346,2.106,2.586,5.085,4.637,4.873
	c3.283-0.339,6.569-0.668,9.861-0.889c1.075-0.072,1.753-0.212,1.441-1.483c0.967-0.845,1.785,0.28,3.098,0.219
	C137.687,466.158,136.763,466.444,135.811,467.115z"/>
<path fill-rule="evenodd" clip-rule="evenodd" fill="#898989" d="M258.931,135.043c-0.212,1.51-0.089,2.898,1.232,3.948
	c0.669,0.531,0.523,1.256,0.377,2.009c-1.536,7.905-0.22,15.261,4.099,22.115c1.194,1.895-0.449,3.478-1.198,5.105
	c-0.291-0.496-0.718-1.215-1.191-1.094c-3.96,1.019-6.822-2.289-10.447-2.559c-1.494-0.111-2.606-0.844-3.414-2.296
	c-1.049-1.884-3.3-1.735-5.076-2.353c-0.641-0.223-0.871,0.262-0.856,0.807c0.059,2.143-1.712,2.906-3.026,4.248
	c-1.752-3.47-0.196-6.725-0.037-9.991c0.09-1.855,1.075-2.174,2.492-3.152c3.667-2.53,8.879-2.255,11.501-6.487
	c0.373-0.601,1.044-0.986,1.224-1.76C255.353,140.388,257.261,137.774,258.931,135.043z"/>
<path fill-rule="evenodd" clip-rule="evenodd" fill="#898989" d="M230.255,185.229c-1.093,2.726-3.035,4.923-4.603,7.351
	c-2.499,3.869-2.413,7.63,0.375,11.194c0.182,0.232,0.507,0.54,0.738,0.518c2.719-0.257,2.486,1.675,2.514,3.37
	c0.034,2.101,0.004,4.202,0.002,6.303c-0.79-2.269-1.596-4.531-2.36-6.809c-0.343-1.022-0.681-2.359-2.009-1.793
	c-1.344,0.572-3.628-0.63-3.955,2.163c-0.422,3.609-1.612,7.058-2.837,10.479c-0.336,0.938-0.625,1.848-2.111,2.096
	c0.885-2.833,1.824-5.505,2.293-8.312c0.296-1.768,0.36-3.344-0.586-4.889c-0.7-1.143-0.698-2.269,0.029-3.417
	c1.252-1.975,2.46-3.977,3.707-5.955c1.226-1.945,2.001-4.026,2.753-6.22C225.137,188.585,227.861,186.904,230.255,185.229z"/>
<path fill-rule="evenodd" clip-rule="evenodd" fill="#898989" d="M88.095,478.516c-0.473,0.188-0.913-0.478-1.456-0.949
	c-2.069-1.798-3.597-1.729-5.201,0.34c-0.792,1.022-1.394,1.274-2.069-0.033c-0.628-1.215-1.661-2.025-2.902-2.446
	c-1.693-0.575-2.48-2.073-3.411-3.315c-1.092-1.458,0.888-1.922,1.416-2.862c0.648-1.156,1.183-0.093,1.677,0.287
	c0.38,0.293,0.758,0.648,0.995,1.059c1.648,2.851,3.941,4.461,7.362,3.805c2.499-0.479,3.745,1.502,5.42,2.639
	c0.209,0.143,0.414,0.643,0.321,0.816C89.869,478.562,89.087,478.173,88.095,478.516z"/>
<path fill-rule="evenodd" clip-rule="evenodd" fill="#898989" d="M245.361,182.309c-4.118,0.162-8.132-0.928-12.229-1.02
	c1.274-1.442,2.755-2.729,3.067-4.816c0.087-0.581,0.383-1.348,1.193-1.326c0.752,0.02,1.385,0.4,1.726,1.137
	c0.068,0.146,0.194,0.274,0.232,0.425C240.135,179.885,241.662,182.261,245.361,182.309z"/>
<path fill-rule="evenodd" clip-rule="evenodd" fill="#898989" d="M82.028,472.439c-2.73,0.191-3.602-1.648-4.647-3.251
	c-0.286-0.438-0.043-0.759,0.325-0.987c0.341-0.21,0.704-0.387,1.063-0.564c3.676-1.814,5.562-0.74,5.601,3.387
	C84.388,472.735,82.799,472.356,82.028,472.439z"/>
<path fill-rule="evenodd" clip-rule="evenodd" fill="#3D3D3D" d="M363.705,93.657c-0.261,1.725,0.812,3.178,1.177,5.022
	c-1.62-0.782-1.923-2.124-2.409-3.369c-0.522-1.336-0.495-3.139-2.672-3.157c-0.696-0.006-0.638-0.746-0.378-1.111
	c0.923-1.297,0.099-2.458-0.162-3.667c-0.278-0.888-0.141-1.498,0.973-1.458c0.402-0.555,0.805-1.11,1.237-1.707
	c0.228,0.611,0.438,1.174,0.647,1.737C362.647,88.517,363.176,91.087,363.705,93.657z"/>
<path fill-rule="evenodd" clip-rule="evenodd" fill="#898989" d="M271.141,110.265c2.684,3.862,1.834,7.91-1.94,9.243
	c0.846-2.745,0.1-5.774,1.501-8.421C270.847,110.812,270.994,110.539,271.141,110.265z"/>
<path fill-rule="evenodd" clip-rule="evenodd" fill="#898989" d="M269.2,119.508c0.156,0.706,0.271,1.423,0.478,2.113
	c0.298,1,0.314,1.763-1.041,1.806c-0.701,0.023-1.324,0.248-1.218,1.132c0.08,0.664-0.194,0.878-0.803,0.826
	c-2.615-0.227-4.252,1.643-6.181,2.887c0.195-0.422,0.273-1.038,0.603-1.236C264.285,125.088,266.692,122.247,269.2,119.508z"/>
<path fill-rule="evenodd" clip-rule="evenodd" fill="#898989" d="M255.57,178.9c0.124,0.392,0.294,0.725,0.739,0.864
	c0.67,0.209,1.955-0.322,1.794,0.937c-0.131,1.031-1.324,0.562-2.048,0.672c-2.918,0.445-5.818,1.11-8.805,0.889
	C249.943,180.942,253.257,181.16,255.57,178.9z"/>
<path fill-rule="evenodd" clip-rule="evenodd" fill="#FFFFFF" d="M360.233,85.916c-0.324,0.486-0.647,0.973-0.973,1.458
	c-1.133,1.611-2.554,3.008-2.492,5.278c0.058,2.14,0.531,3.744,2.704,4.631c0.904,0.369,1.682,1.032,1.808,2.333
	c0.386,3.999,2.45,6.691,6.513,7.628c0.642,0.148,1.764,0.208,1.137,1.235c-0.453,0.743-0.384,2.403-1.957,1.936
	c-2.927-0.87-4.635,0.378-5.643,3.002c-0.437,1.137-1.365,1.343-2.375,1.208c-1.808-0.24-3.079,0.526-4.218,1.842
	c-0.939,1.085-1.955,1.914-3.578,2.225c-2.063,0.395-3.63,0.54-4.376-2.135c-1.073,1.409-1.487,2.585-0.643,3.937
	c0.868,1.39,0.602,2.206-1.082,2.524c-0.702,0.133-1.349,0.549-2.05,0.712c-0.658,0.154-1.615,0.766-1.954-0.064
	c-0.312-0.763-1.146-1.842-0.188-2.631c0.967-0.795,0.627-1.482,0.26-2.327c-1.386-3.184-0.946-4.285,2.188-5.595
	c0.147-0.062,0.411-0.09,0.431-0.178c0.478-2.017,1.544-3.905,1.986-5.81c0.468-2.013-1.208-3.838-3.428-4.577
	c-0.458-0.152-1.284-0.292-1.145-0.692c1.081-3.104-2.589-4.566-2.456-7.411c0.052-1.119-0.345-2.113,0.656-3.044
	c1.042-0.971,0.854-2.213,0.202-3.315c-0.676-1.143-1.629-0.261-2.388-0.083c-3.166,0.74-5.612-0.908-6.195-4.096
	c-0.487-2.661-0.905-5.259,0.557-7.764c0.562-0.962,0.878-1.854,2.448-1.844c1.695,0.012,3.09-3.919,1.953-5.108
	c-2.409-2.519-2.889-5.624-2.245-8.776c0.579-2.837-0.008-4.668-2.438-6.391c-2.258-1.601-3.562-4.264-5.527-6.283
	c-1.178-1.211-0.762-3.297-0.279-4.9c0.329-1.09,1.3-1.89,2.601-0.765c1.762,1.523,3.486,1.967,5.066-0.287
	c0.166-0.237,0.662-0.54,0.793-0.46c3.166,1.909,6.176-1.336,9.339-0.261c0.896,0.305,1.896,0.104,2.469-1.011
	c0.285-0.553,0.379-1.71,1.322-1.373c0.846,0.304,1.482,1.707,1.253,2.161c-1.166,2.297,0.79,3.862,1.062,5.783
	c0.194,1.365,0.531,2.736-0.645,3.869c-0.562,0.541-0.531,1.056-0.069,1.7c2.097,2.924,1.888,7.062,4.98,9.499
	c0.267,0.21,0.304,0.955,0.181,1.372c-0.548,1.864-1.212,3.667-2.739,5.034c-2.885,2.585-2.863,2.609-0.172,5.301
	c2.407,2.408,4.731,4.907,7.253,7.19C359.791,82.088,360.611,83.717,360.233,85.916z"/>
<path fill-rule="evenodd" clip-rule="evenodd" fill="#3B3B3B" d="M200.257,295.093c-0.751-0.882-2.439,0.584-2.321-1.066
	c0.083-1.166,0.707-2.56,2.393-2.637c0.884-0.04,1.806,0.027,2.542-0.619c0.603-0.529,1.941-0.804,1.063-1.96
	c-0.599-0.788-1.165-2.214-2.658-1.267c-0.546,0.347-1.046,0.614-1.38-0.13c-0.444-0.99-0.548-2.109-0.063-3.056
	c0.346-0.675,1.012-0.13,1.452,0.178c0.808,0.564,1.362,0.125,1.913-0.399c0.643-0.61,0.204-1.195-0.081-1.757
	c-0.542-1.064-1.114-2.113-1.856-3.512c1.789,0.352,2.909-0.003,3.198-1.718c0.232-1.377,1.469-1.273,2.483-1.484
	c1.166-0.243,1.735-0.767,0.883-1.978c-0.557-0.792-1.053-1.636-1.491-2.5c-3.155-6.22-0.07-11.094,6.772-11.53
	c1.048-0.067,1.46,0.308,1.627,1.283c0.376,2.196,1.325,3.932,3.696,4.579c1.589,0.435,1.414,1.374,0.637,2.544
	c-2.613,3.939-2.7,8.349-2.074,12.801c0.19,1.352-0.473,2.48-0.588,3.907c0.48-0.085,0.827-0.053,1.055-0.2
	c1.525-0.988,3.262-0.875,4.155,0.436c1.028,1.51,1.938,3.427,0.659,5.42c-0.656,1.021-1.181,2.128-1.87,3.123
	c-1.213,1.752-2.023,3.469-0.698,5.565c0.616,0.975-0.075,1.866-0.618,2.675c-1.772,2.642-3.107,5.472-4.008,8.534
	c-0.385,1.308-0.271,2.252,0.651,3.315c2.213,2.554,1.828,5.414-1.008,7.356c-1.625,1.113-3.112,2.29-4.194,3.96
	c-0.838,1.295-1.684,2.582-3.558,2.532c-0.951-0.026-0.993,0.915-1.203,1.593c-0.507,1.638-1.194,3.183-2.245,4.552
	c-1.749,2.278-3.39,2.402-5,0.085c-1.056-1.52-1.95-2.053-3.456-0.724c-0.294,0.26-1.041,0.393-1.063,0.073
	c-0.185-2.649-3.838-1.876-4.247-4.672c-0.374-2.563,1.003-4.104,1.938-5.998c0.131-0.265,0.22-0.551,0.342-0.86
	c-0.985-0.354-1.257,0.368-1.6,0.841c-2.397,3.308-5.423,6.213-6.14,10.553c-0.28,1.694-1.602,2.062-3.19,1.28
	c-1.372-0.675-2.737-1.533-4.344-1.317c-0.738,0.1-1.707,0.213-1.852,1.259c-0.124,0.893,0.493,1.254,1.224,1.563
	c0.7,0.295,1.813,0.577,1.027,1.662c-0.838,1.157-1.333-0.117-1.905-0.496c-0.673-0.445-1.326-0.932-1.928-1.469
	c-1.945-1.733-1.817-2.433,0.581-3.207c0.485-0.157,1.031-0.298,1.072-0.833c0.199-2.552,2.322-2.878,3.999-2.896
	c3.056-0.034,4.47-1.954,5.788-4.113c1.156-1.895,1.684-4.158,4.184-5.079c1.111-0.409,1.046-2.102,1.646-3.152
	c0.639-1.119,1.245-2.271,1.717-3.466c0.221-0.558,2.169-1.356-0.103-1.929c-0.394-0.099,0.074-0.883,0.285-1.276
	c2.173-4.052,3.76-8.45,6.951-11.904C200.113,296.839,200.087,295.928,200.257,295.093z"/>
<path fill-rule="evenodd" clip-rule="evenodd" fill="#FFFFFF" d="M267.817,210.586c-0.326,1.209-0.619,2.413,0.158,3.579
	c0.427,0.639,0.101,1.176-0.282,1.691c-1.093,1.791-1.972,3.795-4.325,4.329c-0.156,0.035-0.371,0.152-0.383,0.277
	c-0.267,2.901-3.329,5.163-2.003,8.393c0.562,1.369,0.451,2.473-0.511,3.577c-2.075,2.382-3.511,4.895-1.597,8.101
	c0.339,0.568,0.166,1.318-0.258,1.843c-1.742,2.153-2.564,4.805-3.942,7.153c-0.189,0.311-0.378,0.622-0.565,0.933
	c-2.448,0.191-4.413,1.936-6.905,2.107c-0.856,0.06-0.324,1.092-0.34,1.67c-0.02,0.674,0.274,1.014,1.085,0.781
	c0.846-0.242,1.783-0.388,2.576,0.176c1.585,1.125,1.571,2.677,0.279,4.226c-1.873,2.243-4.359,3.382-7.063,3.947
	c-1.964,0.411-3.14,1.434-3.98,3.122c-0.334,0.671-0.559,1.612-1.731,1.231c-0.822-0.268-1.525-0.546-1.442-1.609
	c0.063-0.817-0.316-1.209-1.163-1.059c-1.747,0.311-2.256-0.884-2.596-2.199c-0.437-1.688-0.979-3.23-2.896-3.823
	c-0.457-0.142-1.132-0.416-0.872-1.216c0.734-2.257,0.543-4.895,2.646-6.59c1.312-1.058,1.398-2.091,0.861-3.781
	c-0.544-1.712-1.397-3.792,1.46-5.254c1.708-0.875,2.902-3.226,3.483-5.346c0.458-1.667,1.123-2.848,2.785-3.622
	c1.83-0.852,1.922-2.323,0.113-3.161c-3.967-1.836-3.45-5.173-3.279-8.477c0.047-0.911,0.792-1.375,1.341-1.95
	c2.126-2.222,4.269-4.43,6.405-6.644l-0.001,0c1.279-0.726,0.314-1.264-0.144-1.866c-0.841-1.104-0.178-4.977,0.977-5.68
	c0.485-0.295,0.927-0.083,1.331,0.231c2.151,1.669,4.813,1.705,7.304,2.291c0.92,0.216,1.597,0.051,1.818-1.003
	c0.283-1.347,1.206-2.173,2.274-2.958c2.238-1.648,3.287-1.443,4.651,1.069c0.271,0.499,0.564,0.942,1.098,1.244
	c0.975,0.553,2.266,0.771,1.798,2.572C265.748,209.792,267.348,209.825,267.817,210.586z"/>
<path fill-rule="evenodd" clip-rule="evenodd" fill="#FFFFFF" d="M212.686,343.123c0.256-2.782,1.245-5.549,2.888-8.091
	c0.218-0.337,0.747-0.71,0.686-0.954c-0.799-3.191,1.335-1.386,2.29-1.312c2.384,0.185,3.869,0.974,3.024,3.92
	c-0.527,1.836-0.219,3.815,0.567,5.675c0.72,1.704,0.213,3.06-1.356,4.177c-1.505,1.07-2.827,2.398-4.239,3.602
	c-0.494,0.421-0.47,1.496-1.555,1.184c-1.11-0.32-1.536-1.224-1.679-2.176C213.024,347.237,212.901,345.302,212.686,343.123z"/>
<path fill-rule="evenodd" clip-rule="evenodd" fill="#FFFFFF" d="M322.212,50.896c1.329-0.084,2.505,0.251,3.69,0.361
	c1.796,0.166,2.162,1.329,2.104,2.625c-0.058,1.326-1.043,2.101-2.384,2.319c-3.203,0.523-3.231,0.594-2.518,3.688
	c0.165,0.712,0.789,1.732-0.323,2.094c-1.354,0.441-2.592,1.974-4.173,0.977c-4.282-2.697-4.729-4.242-3.387-9.297
	c0.426-1.606,1.177-2.285,2.8-2.337C319.459,51.28,320.847,50.639,322.212,50.896z"/>
<path fill-rule="evenodd" clip-rule="evenodd" fill="#3B3B3B" d="M176.938,345.829c-0.227-1.263-0.425-2.286-0.591-3.315
	c-0.133-0.827-0.138-1.607,0.756-2.097c0.89-0.487,1.622-0.173,2.142,0.506c1.401,1.826,2.581,1.385,3.847-0.163
	c0.543-0.665,1.113-1.489,2.094-1.526c0.924-0.034,1.752,0.422,2.336,1.104c0.598,0.699,0.1,1.48-0.342,1.977
	c-1.33,1.495-0.756,2.586,0.542,3.642c0.879,0.716,1.254,1.666,1.147,2.791c-0.08,0.841,0.297,1.931-0.813,2.312
	c-1.012,0.347-2.101,0.335-2.958-0.487c-0.939-0.9-1.854-1.741-3.259-1.92c-0.807-0.103-0.979-0.95-1.199-1.661
	C179.867,344.475,179.054,344.193,176.938,345.829z"/>
<path fill-rule="evenodd" clip-rule="evenodd" fill="#FFFFFF" d="M310.216,40.203c-0.074-3.568,1.483-5.947,3.431-8.136
	c0.176-0.198,0.559-0.306,0.842-0.3c2.113,0.041,6.235,3.811,6.529,5.938c0.194,1.399-2.327,3.841-4.141,3.892
	c-1.461,0.042-2.905-0.076-3.941,1.284c-0.454,0.596-1.007,0.401-1.4-0.129C310.86,41.845,310.348,40.853,310.216,40.203z"/>
<path fill-rule="evenodd" clip-rule="evenodd" fill="#3B3B3B" d="M180.053,359.498c0.083,1.173-0.228,1.795-0.581,2.455
	c-1.976,3.689-4.304,7.056-7.942,9.335c-0.367,0.229-0.699,0.561-1.009,0.178c-0.638-0.787-1.546-1.504-1.298-2.702
	c0.214-1.034,0.568-2.031,1.329-2.812c1.95-2.001,3.37-4.343,4.138-7.009c0.596-2.071,2.095-1.953,3.65-1.799
	C180.049,357.314,179.742,358.836,180.053,359.498z"/>
<path fill-rule="evenodd" clip-rule="evenodd" fill="#3B3B3B" d="M158.463,387.603c0.189-2.625,0.394-5.177,1.426-7.56
	c0.393-0.908,0.974-1.673,1.919-2.095c2.015-0.898,3.912-1.932,4.868-4.104c0.12-0.271,0.46-0.653,0.676-0.64
	c2.026,0.132,2.63,2.134,4.003,3.146c0.559,0.412,0.855,1.01,0.225,1.644c-0.939,0.945-1.767,2.407-3.4,1.447
	c-2.606-1.532-3.195-0.179-3.717,2.116C163.761,384.65,160.927,385.938,158.463,387.603z"/>
<path fill-rule="evenodd" clip-rule="evenodd" fill="#3B3B3B" d="M330.872,33.078c-5.735-2.02-4.994-1.622-1.217-5.374
	c2.684-2.665,6.518-2.071,8.108,1.076c0.595,1.177,0.545,2.05-0.893,2.34c-1.298,0.262-2.552,1.142-3.958,0.36
	c-0.576-0.321-1.007-1.243-1.86-0.585C330.268,31.501,331.294,32.25,330.872,33.078z"/>
<path fill-rule="evenodd" clip-rule="evenodd" fill="#3B3B3B" d="M350.303,44.212c1.31,2.731,2.947,5.038,2.195,8.102
	c-0.477,1.948,0.822,3.381,1.874,4.792c0.979,1.313,1.134,2.547,0.022,4.068C351.126,55.966,349.106,50.644,350.303,44.212z"/>
<path fill-rule="evenodd" clip-rule="evenodd" fill="#3B3B3B" d="M225.125,275.222c-0.862,2.629-2.422,4.148-3.707,5.803
	c-0.824,1.062-1.831,0.28-2.412-0.45c-0.667-0.839-0.63-1.875,0.43-2.461C221.15,277.165,222.927,276.33,225.125,275.222z"/>
<path fill-rule="evenodd" clip-rule="evenodd" fill="#3B3B3B" d="M159.619,367.841c0.041,1.724-2.452,4.524-4.136,4.548
	c-1.02,0.014-1.218-0.721-0.918-1.52c0.732-1.953,2.381-3.03,4.112-3.934C159.44,366.537,159.633,367.188,159.619,367.841z"/>
<path fill-rule="evenodd" clip-rule="evenodd" fill="#3B3B3B" d="M244.875,212.993c-1.167,0.114-1.717,1.114-2.525,1.747
	c-0.814,0.638-1.663,1.229-2.53,1.866c-0.404-2.515,0.153-3.503,2.364-4.485C243.377,211.59,244.366,211.501,244.875,212.993
	L244.875,212.993z"/>
<path fill-rule="evenodd" clip-rule="evenodd" fill="#3B3B3B" d="M333.716,107.869c-1.062-0.098-2.408,0.023-2.001-1.592
	c0.224-0.886-0.045-2.614,1.313-2.433c1.538,0.205,1.513,2.081,1.893,3.302C335.267,108.262,334.22,107.819,333.716,107.869z"/>
<path fill-rule="evenodd" clip-rule="evenodd" fill="#898989" d="M254.675,249.529c0.631-1.646,1.079-3.395,1.938-4.912
	c1.224-2.162,1.394-4.218,0.141-6.333c-0.778-1.313-0.663-2.341,0.455-3.426c0.737-0.716,1.123-1.795,1.861-2.511
	c1.251-1.213,1.396-2.389,0.412-3.804c-1.043-1.501-0.166-2.836,0.606-4.03c0.772-1.195,1.455-2.261,0.875-3.769
	c-0.319-0.833-0.065-1.855,0.959-1.79c2.637,0.168,4.1-1.607,5.771-3.099c-0.442,2.581-1.805,4.832-2.609,7.285
	c-0.883,2.689-1.275,5.353,0.072,7.995c0.506,0.994,0.051,1.661-0.554,2.382c-1.165,1.389-1.941,2.891-1.774,4.835
	c0.141,1.653-0.788,3.306-2.032,3.931c-2.793,1.403-3.981,3.875-5.318,6.354C255.293,248.979,254.946,249.234,254.675,249.529z"/>
<path fill-rule="evenodd" clip-rule="evenodd" fill="#898989" d="M237.583,187.384c-0.049,2.13-1.325,3.36-2.225,4.771
	c-0.653,1.022-1.16,1.828-0.398,3.245c0.928,1.725-0.471,3.373-1.606,4.448c-0.978,0.926-2.739,0.89-4.126,0.607
	c-1.061-0.216-1.627-3.271-0.804-4.283c1.462-1.795,2.177-3.922,3.074-5.991c0.857-1.979,2.226-3.559,4.51-3.929
	C236.986,186.094,237.905,186.265,237.583,187.384z"/>
<path fill-rule="evenodd" clip-rule="evenodd" fill="#898989" d="M281.428,201.083c-2.904,0.091-3.943-1.425-2.92-3.743
	c0.423-0.958,0.866-1.925,1.438-2.798c1.446-2.21,5.179-2.486,6.787-0.554c0.711,0.854-0.027,5.306-1.062,5.724
	C284.182,200.313,282.61,200.71,281.428,201.083z"/>
<path fill-rule="evenodd" clip-rule="evenodd" fill="#898989" d="M276.344,211.792c-0.149,0.857-0.202,1.511-0.385,2.126
	c-0.41,1.389-1.597,1.95-2.811,1.757c-1.416-0.226-1.589-1.387-1.126-2.654c0.193-0.527,0.271-1.096,0.423-1.64
	c0.365-1.308,1.092-2.838,2.411-2.63C276.219,208.965,275.706,210.935,276.344,211.792z"/>
<path fill-rule="evenodd" clip-rule="evenodd" fill="#898989" d="M267.793,158.471c0.234,0.849-0.165,1.429-1.001,1.579
	c-1.115,0.201-0.813-0.618-0.779-1.239c0.048-0.858-0.66-1.109-1.254-1.248c-2.139-0.499-2.262-2.358-2.667-3.951
	c-0.206-0.81,0.234-1.45,1.279-1.088C265.553,153.28,267.7,156.148,267.793,158.471z"/>
<path fill-rule="evenodd" clip-rule="evenodd" fill="#898989" d="M271.397,225.849c-0.278-1.609-0.548-2.844-0.691-4.093
	c-0.136-1.186,0.122-2.289,1.402-2.751c0.604-0.218,1.493-0.292,1.692,0.409c0.329,1.159,1.185,2.397,0.144,3.622
	C273.224,223.883,272.453,224.688,271.397,225.849z"/>
<path fill-rule="evenodd" clip-rule="evenodd" fill="#3B3B3B" d="M106.856,476.919c-1.928-1.167-3.305-2.737-4.582-4.325
	c-0.975-1.214,0.553-1.772,1.142-2.506c1.275-1.588,2.639-0.38,3.944-0.011c1.335,0.378,1.167,1.58,1.25,2.597
	c0.024,0.291-0.099,0.842-0.221,0.861C106.34,473.859,107.257,475.619,106.856,476.919z"/>
<path fill-rule="evenodd" clip-rule="evenodd" fill="#3B3B3B" d="M135.811,467.115c-0.045-1.087,0.071-2.249,1.1-2.745
	c1.031-0.498,1.353,0.846,2.071,1.246c0.208,0.115,0.402,0.269,0.574,0.435c0.825,0.804,2.9,1.461,1.816,2.644
	c-0.831,0.907-3.017,0.835-4.406-0.388c-0.415-0.364-0.773-0.794-1.157-1.192L135.811,467.115z"/>
<path fill-rule="evenodd" clip-rule="evenodd" fill="#898989" d="M220.506,290.236c-1.142,2.646-2.513,5.288-4.383,7.623
	c-0.559,0.697-4.473-0.463-4.74-1.322c-0.25-0.801,0.476-1.152,0.924-1.533c1.804-1.535,3.991-2.615,3.947-5.649
	c-0.016-1.111,1.914-1.386,3.067-1.351C220.447,288.037,220.31,289.25,220.506,290.236z"/>
<path fill-rule="evenodd" clip-rule="evenodd" fill="#898989" d="M199.992,328.396c-0.588,1.291-1.849,1.628-2.961,1.634
	c-0.97,0.004-2.417-0.677-2.162-1.77c0.329-1.407,1.345-3.303,2.744-3.295C198.967,324.974,199.382,327.008,199.992,328.396z"/>
<path fill-rule="evenodd" clip-rule="evenodd" fill="#898989" d="M199.079,306.503c0.685,0.066,0.5,0.758,0.416,1.261
	c-0.187,1.112-0.462,2.211-0.729,3.308c-0.189,0.777-0.284,1.647-1.422,1.634c-1.022-0.012-1.364-0.766-1.671-1.516
	C195.047,309.657,197.279,306.399,199.079,306.503z"/>
<g>
	<g>
		<g>
			<circle fill="#1E1E1E" cx="184" cy="416.42" r="4.19"/>
			<circle fill="none" stroke="#1E1E1E" stroke-miterlimit="10" cx="184" cy="416.666" r="7"/>
		</g>
		<line fill="none" stroke="#1E1E1E" stroke-miterlimit="10" x1="214.093" y1="416.42" x2="252.426" y2="416.42"/>
	</g>
	<text transform="matrix(1 0 0 1 263.4004 419.6094)" fill="#4A4849" font-family="'NexaLight'" font-size="13.39">San Pedro</text>
</g>
<path fill-rule="evenodd" clip-rule="evenodd" fill="#FFFFFF" d="M400.885,320.355c0.295-0.23,0.59-0.7,0.885,0
	C401.475,320.355,401.18,320.355,400.885,320.355z"/>
<g>
	<g>
		<g>
			<circle fill="#1E1E1E" cx="243.906" cy="304.505" r="4.19"/>
			<circle fill="none" stroke="#1E1E1E" stroke-miterlimit="10" cx="243.906" cy="304.751" r="7"/>
		</g>
		<line fill="none" stroke="#1E1E1E" stroke-miterlimit="10" x1="273.999" y1="304.505" x2="312.332" y2="304.505"/>
	</g>
	<g>
		<text transform="matrix(1 0 0 1 325.1328 305.9307)" fill="#4A4849" font-family="'NexaLight'" font-size="13.3895">Bluewater Beach </text>
		<path fill-rule="evenodd" clip-rule="evenodd" fill="#2D50A3" d="M437.485,310.324c-1.536-0.22-3.049-0.458-4.607-0.655
			c-9.609-1.214-19.534-1.585-29.728-1.283c-8.816,0.263-17.188,1.075-25.315,2.224c-10.679,1.51-21.792,2.284-33.404,2.086
			c-7.295-0.124-14.367-0.62-21.069-1.638c-0.063-0.01-0.142-0.013-0.295,0.018c0.198,0.053,0.391,0.111,0.605,0.154
			c5.838,1.201,11.979,2.141,18.459,2.784c2.306,0.228,4.653,0.419,7.045,0.57c10.618,0.67,21.038,0.425,31.323-0.714
			c7.973-0.882,16.004-1.71,24.057-2.504c5.797-0.573,11.774-0.831,17.816-0.881c4.842-0.036,9.688-0.046,14.529-0.067
			c0.163,0,0.323-0.005,0.486-0.008C437.419,310.381,437.449,310.353,437.485,310.324z"/>
	</g>
</g>
</svg>
