<?xml version="1.0" encoding="utf-8"?>
<!-- Generator: Adobe Illustrator 16.0.0, SVG Export Plug-In . SVG Version: 6.00 Build 0)  -->
<!DOCTYPE svg PUBLIC "-//W3C//DTD SVG 1.1//EN" "http://www.w3.org/Graphics/SVG/1.1/DTD/svg11.dtd">
<svg version="1.1" id="Layer_1" xmlns="http://www.w3.org/2000/svg" xmlns:xlink="http://www.w3.org/1999/xlink" x="0px" y="0px"
	 width="500px" height="100px" viewBox="0 0 500 100" enable-background="new 0 0 500 100" xml:space="preserve">
<path fill-rule="evenodd" clip-rule="evenodd" fill="#FFFFFF" d="M500.906,42.923c-6.723-0.963-13.347-2.006-20.168-2.872
	c-42.067-5.312-85.519-6.938-130.145-5.614c-38.595,1.149-75.241,4.708-110.826,9.736c-46.749,6.605-95.399,9.997-146.242,9.13
	c-31.934-0.544-62.894-2.713-92.232-7.171C1.01,46.088,0.671,46.078,0,46.213c0.868,0.23,1.708,0.482,2.651,0.673
	c25.554,5.256,52.435,9.372,80.81,12.186c10.091,0.999,20.369,1.836,30.843,2.496c46.485,2.936,92.1,1.861,137.126-3.123
	c34.901-3.861,70.062-7.484,105.316-10.961c25.38-2.512,51.546-3.641,77.996-3.854c21.199-0.159,42.414-0.202,63.606-0.297
	c0.719,0,1.415-0.021,2.128-0.033C500.62,43.172,500.748,43.047,500.906,42.923z"/>
</svg>
